<svg width="23" height="20" viewBox="0.1990966796875 0.0732421875 22.601806640625 19.853515625" fill="none" xmlns="http://www.w3.org/2000/svg">
<path d="M21.4412 8.65831H4.50959C4.50664 8.65831 4.50369 8.65221 4.50664 8.65221L10.8933 2.30888C11.4097 1.79653 11.4274 0.94567 10.9287 0.411976C10.4329 -0.121718 9.60944 -0.140016 9.09297 0.37538L0.398426 9.00902C0.144614 9.26215 0 9.61286 0 9.97577C0 10.3417 0.144614 10.6894 0.398426 10.9425L9.14019 19.625C9.39105 19.875 9.71569 20.0001 10.0403 20.0001C10.3827 20.0001 10.7221 19.8628 10.9759 19.5884C11.4717 19.0547 11.457 18.2038 10.9405 17.6915L4.55386 11.3481C4.55091 11.3451 4.55386 11.342 4.55681 11.342H21.4707C22.1613 11.342 22.725 10.7839 22.7664 10.0825C22.8106 9.30484 22.1938 8.65831 21.4412 8.65831Z" fill="#292A2E" stroke="#292A2E"/>
</svg>
