<svg width="27" height="27" viewBox="0.1666259765625 0.166748046875 26.666748046875 26.66650390625" fill="none" xmlns="http://www.w3.org/2000/svg">
<path fill-rule="evenodd" clip-rule="evenodd" d="M17.5499 13.5C17.5499 15.7367 15.7367 17.5499 13.5 17.5499C11.2632 17.5499 9.44997 15.7367 9.44997 13.5C9.44997 11.2632 11.2632 9.44997 13.5 9.44997C15.7367 9.44997 17.5499 11.2632 17.5499 13.5ZM14.85 13.5C14.85 14.2455 14.2455 14.85 13.5 14.85C12.7544 14.85 12.15 14.2455 12.15 13.5C12.15 12.7544 12.7544 12.15 13.5 12.15C14.2455 12.15 14.85 12.7544 14.85 13.5Z" fill="black"/>
<path fill-rule="evenodd" clip-rule="evenodd" d="M13.5 0C12.4817 0 11.7826 0.563592 11.3586 1.16134C10.9679 1.71225 10.7433 2.37452 10.5945 2.88424C10.5228 3.12956 10.4593 3.37495 10.4042 3.58798L10.3899 3.64309C10.3314 3.86892 10.2839 4.04849 10.2375 4.19822C9.78123 4.35825 9.34038 4.55084 8.9178 4.77312C8.81856 4.71304 8.70515 4.64085 8.57092 4.55446L8.49899 4.50812C8.33371 4.40157 8.1441 4.27934 7.95123 4.16214C7.53038 3.9064 6.95129 3.5831 6.33366 3.44146C5.6654 3.28821 4.76368 3.31709 4.04038 4.0404C3.32258 4.75819 3.28635 5.6572 3.41983 6.3191C3.54546 6.94211 3.84791 7.53499 4.09349 7.97417C4.20889 8.18054 4.32927 8.38271 4.43428 8.55908L4.47026 8.61952C4.5677 8.78333 4.64736 8.91869 4.71194 9.03614C4.51537 9.42248 4.34344 9.82362 4.19829 10.2375C4.04856 10.2838 3.86899 10.3313 3.64316 10.3898L3.58817 10.4041C3.37512 10.4592 3.12964 10.5227 2.88429 10.5944C2.37456 10.7432 1.71227 10.9678 1.16135 11.3585C0.563582 11.7825 0 12.4816 0 13.5C0 14.5183 0.563582 15.2174 1.16135 15.6414C1.71227 16.0321 2.37456 16.2567 2.88429 16.4055C3.12969 16.4772 3.37517 16.5407 3.58825 16.5959L3.64316 16.6101C3.869 16.6686 4.04857 16.7161 4.19829 16.7624C4.34111 17.1697 4.50986 17.5646 4.7025 17.9452C4.63768 18.0565 4.55901 18.1839 4.46329 18.3381L4.44417 18.3689C4.33121 18.5507 4.19976 18.7624 4.07366 18.9808C3.82025 19.4199 3.50729 20.0197 3.38463 20.6619C3.25109 21.3611 3.32739 22.2465 4.04038 22.9595C4.75757 23.6767 5.64557 23.7482 6.35207 23.5941C6.98961 23.4551 7.57565 23.1205 7.99623 22.8568C8.20095 22.7284 8.39976 22.5948 8.57046 22.4801L8.61329 22.4513C8.73827 22.3674 8.8442 22.2967 8.9374 22.2371C9.35401 22.455 9.78827 22.6441 10.2375 22.8017C10.2839 22.9514 10.3314 23.131 10.3899 23.3568L10.4041 23.4117C10.4593 23.6248 10.5228 23.8703 10.5945 24.1157C10.7433 24.6254 10.9679 25.2877 11.3586 25.8386C11.7826 26.4363 12.4817 26.9999 13.5 26.9999C14.5183 26.9999 15.2174 26.4363 15.6414 25.8386C16.0321 25.2877 16.2567 24.6254 16.4055 24.1157C16.4772 23.8703 16.5407 23.6248 16.5959 23.4117L16.6101 23.3568C16.6686 23.131 16.7161 22.9514 16.7625 22.8017C17.2117 22.6441 17.646 22.455 18.0626 22.2371C18.1558 22.2967 18.2617 22.3674 18.3867 22.4513L18.4296 22.4801C18.6003 22.5948 18.7991 22.7284 19.0038 22.8567C19.4243 23.1205 20.0104 23.4551 20.6479 23.5941C21.3544 23.7482 22.2424 23.6767 22.9596 22.9595C23.6725 22.2465 23.7488 21.3611 23.6153 20.6619C23.4926 20.0197 23.1797 19.4199 22.9263 18.9809C22.8002 18.7625 22.6688 18.5508 22.5558 18.369L22.5367 18.3381C22.441 18.184 22.3623 18.0565 22.2975 17.9452C22.4901 17.5646 22.6589 17.1697 22.8017 16.7624C22.9514 16.7161 23.131 16.6686 23.3568 16.6101L23.4119 16.5958C23.6249 16.5407 23.8703 16.4772 24.1156 16.4055C24.6254 16.2567 25.2876 16.0321 25.8385 15.6414C26.4363 15.2174 26.9999 14.5183 26.9999 13.5C27 12.4817 26.4364 11.7825 25.8386 11.3585C25.2877 10.9678 24.6254 10.7432 24.1157 10.5944C23.8703 10.5227 23.6248 10.4592 23.4118 10.404L23.3568 10.3898C23.131 10.3313 22.9514 10.2838 22.8017 10.2375C22.6589 9.83024 22.4901 9.43532 22.2975 9.05471C22.3623 8.94342 22.441 8.81595 22.5367 8.66179L22.5558 8.63098C22.6688 8.44911 22.8002 8.23748 22.9263 8.01904C23.1797 7.58 23.4926 6.98023 23.6153 6.33801C23.7488 5.63885 23.6725 4.75342 22.9596 4.04043C22.2424 3.3232 21.3544 3.2517 20.6479 3.40578C20.0104 3.54482 19.4243 3.87945 19.0038 4.14317C18.7991 4.2715 18.6003 4.40509 18.4296 4.51979L18.3867 4.54863C18.2617 4.63257 18.1558 4.70321 18.0626 4.76284C17.646 4.5449 17.2117 4.35578 16.7625 4.19822C16.7161 4.04849 16.6686 3.86892 16.6101 3.64308L16.5959 3.5882C16.5407 3.37512 16.4772 3.12964 16.4055 2.88424C16.2567 2.37452 16.0321 1.71225 15.6414 1.16134C15.2174 0.563592 14.5183 0 13.5 0ZM11.4551 6.64109C12.0456 6.46534 12.3541 6.01769 12.4872 5.78925C12.6366 5.53286 12.7362 5.25264 12.8058 5.03186C12.8787 4.80042 12.9447 4.54744 13.0035 4.32041L13.0162 4.27158C13.0732 4.05132 13.1268 3.84464 13.1862 3.64108C13.2975 3.26011 13.4019 2.99314 13.5 2.82008C13.5981 2.99314 13.7025 3.26011 13.8138 3.64108C13.8732 3.84462 13.9267 4.05118 13.9838 4.27141L13.9965 4.32041C14.0553 4.54744 14.1213 4.80043 14.1942 5.03186C14.2638 5.25264 14.3634 5.53286 14.5128 5.78925C14.6459 6.01769 14.9544 6.46534 15.5449 6.64109C16.1261 6.81408 16.6767 7.05916 17.1864 7.36629C17.7631 7.71377 18.341 7.58132 18.5884 7.50454C18.8696 7.41733 19.1254 7.2761 19.3097 7.16607C19.506 7.04894 19.7111 6.91155 19.8921 6.79001L19.9292 6.76507C20.1064 6.64602 20.2712 6.5353 20.4381 6.43067C20.5893 6.33582 20.7203 6.26049 20.8329 6.20206C20.7729 6.33343 20.6923 6.48842 20.5878 6.66938C20.4841 6.84902 20.3736 7.02708 20.2554 7.21746L20.2429 7.23759C20.1262 7.42543 19.9952 7.63661 19.884 7.83693C19.7789 8.02628 19.6478 8.28187 19.5672 8.55715C19.499 8.7901 19.3701 9.35558 19.6986 9.92345C19.9754 10.4021 20.1982 10.9154 20.3588 11.4551C20.5346 12.0456 20.9823 12.3541 21.2107 12.4872C21.4671 12.6365 21.7473 12.7361 21.9681 12.8057C22.1995 12.8787 22.4525 12.9447 22.6796 13.0035L22.7285 13.0162C22.9487 13.0732 23.1553 13.1267 23.3589 13.1861C23.7399 13.2974 24.0069 13.4019 24.1799 13.4999C24.0069 13.598 23.7399 13.7025 23.3588 13.8138C23.1553 13.8732 22.9487 13.9267 22.7284 13.9838L22.6795 13.9964C22.4525 14.0553 22.1995 14.1212 21.9681 14.1942C21.7473 14.2638 21.4671 14.3634 21.2107 14.5128C20.9822 14.6459 20.5346 14.9543 20.3588 15.5449C20.1982 16.0846 19.9754 16.5978 19.6986 17.0765C19.3701 17.6443 19.499 18.2098 19.5672 18.4428C19.6478 18.718 19.7789 18.9736 19.884 19.163C19.9952 19.3633 20.1262 19.5745 20.2429 19.7623L20.2554 19.7826C20.3736 19.9729 20.4842 20.1509 20.5878 20.3305C20.6923 20.5115 20.7729 20.6665 20.8329 20.7979C20.7203 20.7394 20.5893 20.6641 20.4381 20.5692C20.2712 20.4646 20.1064 20.3539 19.9292 20.2348L19.8921 20.2099C19.7111 20.0884 19.506 19.951 19.3097 19.8338C19.1254 19.7238 18.8696 19.5826 18.5884 19.4954C18.341 19.4186 17.7631 19.2862 17.1864 19.6336C16.6767 19.9408 16.1261 20.1858 15.5449 20.3588C14.9544 20.5346 14.6459 20.9822 14.5128 21.2107C14.3634 21.4671 14.2638 21.7473 14.1942 21.9681C14.1213 22.1995 14.0553 22.4525 13.9965 22.6795L13.9838 22.7285C13.9267 22.9487 13.8732 23.1553 13.8138 23.3588C13.7025 23.7398 13.5981 24.0068 13.5 24.1798C13.4019 24.0068 13.2975 23.7398 13.1862 23.3588C13.1268 23.1552 13.0732 22.9486 13.0162 22.7283L13.0035 22.6795C12.9447 22.4525 12.8787 22.1995 12.8058 21.9681C12.7362 21.7473 12.6366 21.4671 12.4872 21.2107C12.3541 20.9822 12.0456 20.5346 11.4551 20.3588C10.8739 20.1858 10.3233 19.9408 9.81355 19.6336C9.23688 19.2862 8.65905 19.4186 8.41156 19.4954C8.13044 19.5826 7.87462 19.7238 7.69027 19.8338C7.49403 19.951 7.28888 20.0884 7.10792 20.2099L7.07076 20.2349C6.89357 20.3539 6.72878 20.4646 6.56192 20.5692C6.41061 20.6641 6.27957 20.7395 6.16703 20.7979C6.22695 20.6665 6.30763 20.5115 6.41208 20.3306C6.51575 20.151 6.62631 19.9729 6.7445 19.7826L6.75706 19.7624C6.8737 19.5745 7.0047 19.3634 7.11591 19.163C7.22103 18.9737 7.35217 18.7181 7.43277 18.4428C7.50098 18.2099 7.62994 17.6444 7.30143 17.0765C7.02456 16.5978 6.80179 16.0846 6.64117 15.5449C6.46541 14.9543 6.01774 14.6458 5.7893 14.5128C5.53291 14.3634 5.25267 14.2638 5.0319 14.1942C4.80046 14.1212 4.54747 14.0553 4.32044 13.9964L4.27157 13.9838C4.05131 13.9267 3.84466 13.8732 3.6411 13.8138C3.26007 13.7025 2.99308 13.598 2.82002 13.5C2.99308 13.4019 3.26007 13.2974 3.6411 13.1861C3.84464 13.1267 4.05121 13.0732 4.27144 13.0162L4.32044 13.0035C4.54747 12.9447 4.80046 12.8787 5.0319 12.8057C5.25267 12.7361 5.53291 12.6365 5.7893 12.4872C6.01774 12.3541 6.46541 12.0456 6.64117 11.455C6.80179 10.9154 7.02456 10.4021 7.30143 9.92345C7.62401 9.36581 7.5056 8.80802 7.44257 8.57739C7.36742 8.30243 7.24266 8.0451 7.14049 7.85143C7.03259 7.64688 6.90556 7.43222 6.79075 7.2392L6.75506 7.17923C6.64766 6.99881 6.54644 6.82875 6.45008 6.65643C6.37767 6.52694 6.3161 6.40991 6.26464 6.30459C6.35092 6.35183 6.44557 6.4066 6.54909 6.46951C6.709 6.56669 6.86603 6.66788 7.03355 6.77582L7.10964 6.82484C7.29576 6.94463 7.50454 7.07806 7.70509 7.19185C7.89391 7.29898 8.15165 7.43351 8.43251 7.51494C8.67734 7.58592 9.24718 7.70756 9.81355 7.36629C10.3233 7.05916 10.8739 6.81408 11.4551 6.64109Z" fill="black"/>
</svg>
