<svg width="2" height="2" viewBox="0.1522216796875 0.152099609375 1.695556640625 1.69580078125" fill="none" xmlns="http://www.w3.org/2000/svg">
<path d="M0.999913 0C0.802149 0 0.608826 0.0586438 0.444391 0.168516C0.279957 0.278387 0.151795 0.434552 0.0761139 0.617263C0.000432921 0.799973 -0.0193682 1.00102 0.0192136 1.19499C0.0577954 1.38895 0.153027 1.56712 0.292868 1.70696C0.432708 1.8468 0.610876 1.94203 0.80484 1.98061C0.998804 2.01919 1.19985 1.99939 1.38256 1.92371C1.56527 1.84803 1.72144 1.71987 1.83131 1.55543C1.94118 1.391 1.99982 1.19768 1.99982 0.999912C1.99982 0.734719 1.89448 0.480387 1.70696 0.292867C1.51944 0.105347 1.26511 0 0.999913 0Z" fill="#292826"/>
</svg>
