<svg width="28" height="27" viewBox="0 0 28 27" fill="none" xmlns="http://www.w3.org/2000/svg">
<path d="M13.9217 2.69997C7.77802 2.69997 2.78434 7.55854 2.78434 13.5678C2.78434 15.2719 3.18531 16.8806 3.89868 18.3125C4.23314 18.9839 3.94304 19.791 3.25072 20.1153C2.5584 20.4397 1.72603 20.1584 1.39157 19.487C0.499508 17.6964 0 15.687 0 13.5678C0 6.08161 6.22565 0 13.9217 0C21.6178 0 27.8434 6.08161 27.8434 13.5678C27.8434 15.687 27.3439 17.6964 26.4518 19.487C26.1174 20.1584 25.285 20.4397 24.5927 20.1153C23.9004 19.791 23.6103 18.9839 23.9447 18.3125C24.6581 16.8806 25.0591 15.2719 25.0591 13.5678C25.0591 7.55854 20.0654 2.69997 13.9217 2.69997Z" fill="black"/>
<path fill-rule="evenodd" clip-rule="evenodd" d="M17.4181 19.3377C19.4899 18.1684 20.8826 15.9918 20.8826 13.4998C20.8826 9.77196 17.7661 6.74992 13.9217 6.74992C10.0773 6.74992 6.96085 9.77196 6.96085 13.4998C6.96085 15.9918 8.3535 18.1684 10.4253 19.3377C8.29435 19.8977 6.66412 20.918 5.48168 21.9435C4.60765 22.7015 3.97981 23.46 3.56721 24.0342C3.36039 24.322 3.20601 24.5659 3.10042 24.7435C3.04757 24.8324 3.0068 24.905 2.97765 24.9585C2.96307 24.9853 2.95139 25.0073 2.94254 25.0242L2.93139 25.0458L2.92739 25.0536L2.92578 25.0568L2.92508 25.0582C2.92475 25.0589 2.92444 25.0595 4.17651 25.6497L2.92444 25.0595C2.58829 25.73 2.87636 26.5379 3.56787 26.8638C4.25749 27.1889 5.08791 26.912 5.42583 26.2454L5.42663 26.2438L5.43961 26.2196C5.45355 26.194 5.47781 26.1506 5.51273 26.0918C5.58267 25.9741 5.69476 25.7961 5.8517 25.5777C6.1666 25.1394 6.6554 24.5479 7.33789 23.9559C8.68954 22.7837 10.8071 21.5997 13.9217 21.5997C17.0363 21.5997 19.1539 22.7837 20.5055 23.9559C21.188 24.5479 21.6768 25.1394 21.9917 25.5777C22.1486 25.7961 22.2607 25.9741 22.3307 26.0918C22.3656 26.1506 22.3899 26.194 22.4038 26.2196L22.4168 26.2438L22.4176 26.2453C22.7555 26.9119 23.5859 27.1889 24.2755 26.8638C24.967 26.5379 25.2551 25.73 24.919 25.0595L23.6669 25.6497C24.919 25.0595 24.9187 25.0589 24.9183 25.0582L24.916 25.0536L24.912 25.0458L24.9009 25.0242C24.892 25.0073 24.8803 24.9853 24.8658 24.9585C24.8366 24.905 24.7958 24.8324 24.743 24.7435C24.6374 24.5659 24.483 24.322 24.2762 24.0342C23.8636 23.46 23.2358 22.7015 22.3617 21.9435C21.1793 20.918 19.5491 19.8977 17.4181 19.3377ZM13.9217 17.5498C16.2283 17.5498 18.0982 15.7366 18.0982 13.4998C18.0982 11.2631 16.2283 9.44989 13.9217 9.44989C11.6151 9.44989 9.74519 11.2631 9.74519 13.4998C9.74519 15.7366 11.6151 17.5498 13.9217 17.5498Z" fill="black"/>
</svg>
