<svg width="28" height="27" viewBox="0.125 0.166748046875 27.75 26.66650390625" fill="none" xmlns="http://www.w3.org/2000/svg">
<path fill-rule="evenodd" clip-rule="evenodd" d="M15.5517 1.44025C15.5543 1.4089 15.5556 1.37725 15.5556 1.34535C15.5556 0.602332 14.8591 0 14 0C13.1409 0 12.4444 0.602332 12.4444 1.34535C12.4444 1.37725 12.4457 1.4089 12.4483 1.44025C7.16949 2.09163 3.11111 6.0173 3.11111 10.7628V20.1802H1.55556C0.696446 20.1802 0 20.7825 0 21.5255C0 22.2685 0.696446 22.8709 1.55556 22.8709H9.33333C9.33333 25.0999 11.4227 26.9069 14 26.9069C16.5773 26.9069 18.6667 25.0999 18.6667 22.8709H26.4444C27.3036 22.8709 28 22.2685 28 21.5255C28 20.7825 27.3036 20.1802 26.4444 20.1802H24.8889V10.7628C24.8889 6.0173 20.8305 2.09163 15.5517 1.44025ZM21.7778 10.7628V20.1802H6.22222V10.7628C6.22222 7.04769 9.70445 4.03604 14 4.03604C18.2955 4.03604 21.7778 7.04769 21.7778 10.7628ZM14 24.2162C13.1409 24.2162 12.4444 23.6139 12.4444 22.8709H15.5556C15.5556 23.6139 14.8591 24.2162 14 24.2162Z" fill="black"/>
</svg>
